<svg xmlns="http://www.w3.org/2000/svg" width="170" height="92" fill="none"><rect width="169" height="91" x=".5" y=".5" stroke="#AFB1B8" rx="3.5"/><path fill="#AFB1B8" d="M85.425 43.408a2.947 2.947 0 0 1-.605-1.988v-2.884c0-.883.2-1.555.602-2.015.4-.46 1.089-.688 2.065-.686.917 0 1.569.196 1.954.587.42.499.624 1.109.577 1.724v.678h-1.64v-.686c.005-.225-.01-.45-.048-.672a.65.65 0 0 0-.235-.399.95.95 0 0 0-.594-.156 1.005 1.005 0 0 0-.625.165.768.768 0 0 0-.272.44 3.332 3.332 0 0 0-.065.712v3.5c-.026.337.047.675.21.982a.77.77 0 0 0 .328.238.9.9 0 0 0 .424.056.893.893 0 0 0 .58-.159.704.704 0 0 0 .245-.425c.039-.232.056-.467.051-.701v-.71h1.641v.648a2.64 2.64 0 0 1-.567 1.813c-.377.428-1.02.642-1.964.642s-1.658-.229-2.062-.704ZM92.257 43.438c-.415-.45-.622-1.103-.622-1.969v-3.032c0-.857.207-1.505.622-1.945.414-.44 1.107-.659 2.079-.657.965 0 1.654.22 2.069.657.414.44.625 1.088.625 1.945v3.032c0 .857-.21 1.514-.632 1.966-.421.451-1.107.677-2.062.677-.955 0-1.661-.229-2.08-.674Zm2.843-.728c.149-.28.216-.589.197-.897v-3.714a1.65 1.65 0 0 0-.193-.88.776.776 0 0 0-.335-.241.907.907 0 0 0-.433-.052.918.918 0 0 0-.434.052.786.786 0 0 0-.337.241c-.15.275-.217.578-.197.88v3.731c-.02.309.047.617.197.898.095.094.213.17.346.222a1.158 1.158 0 0 0 .843 0c.133-.052.25-.128.346-.222v-.018ZM99.004 35.924h1.766l1.328 5.595 1.359-5.595h1.719L105.35 44h-1.271l-.136-5.613L102.632 44h-1.019l-1.359-5.633-.126 5.633h-1.284l.16-8.076ZM107.33 35.924h2.752c1.585 0 2.378.764 2.378 2.293 0 1.464-.835 2.196-2.504 2.194h-.937V44h-1.699l.01-8.077Zm2.351 3.451c.168.019.338.005.5-.039.161-.044.309-.117.434-.216.195-.273.281-.593.245-.912a2.526 2.526 0 0 0-.082-.733.582.582 0 0 0-.125-.222.7.7 0 0 0-.214-.162 1.762 1.762 0 0 0-.758-.13h-.659v2.414h.659ZM114.909 35.924h1.825L118.606 44h-1.584l-.37-1.862h-1.627L114.644 44h-1.606l1.871-8.076Zm1.56 5.279-.636-3.39-.635 3.39h1.271ZM120.117 35.924h1.189l2.276 4.607v-4.607h1.41V44h-1.131l-2.29-4.81V44h-1.457l.003-8.076ZM128.294 40.92l-1.892-4.985h1.594l1.155 3.203 1.083-3.203h1.56l-1.869 4.986V44h-1.631v-3.08ZM88.048 47.532v.422h-1.386v3.282h-.581v-3.282h-1.393v-.422h3.36ZM92.393 51.236h-.449a.2.2 0 0 1-.126-.035.194.194 0 0 1-.074-.085l-.401-.88H89.42l-.4.88a.243.243 0 0 1-.062.1.208.208 0 0 1-.126.035h-.448l1.698-3.704h.592l1.719 3.69Zm-2.813-1.375h1.603l-.68-1.508a2.699 2.699 0 0 1-.125-.349c-.024.07-.044.138-.064.197l-.062.155-.672 1.505ZM95.321 50.872c.106.005.213.005.32 0 .091-.008.182-.023.271-.044.083-.017.165-.04.245-.067.075-.027.15-.059.227-.091v-.833h-.679a.137.137 0 0 1-.092-.03.086.086 0 0 1-.026-.03.074.074 0 0 1-.008-.037v-.284h1.318v1.42a2.578 2.578 0 0 1-.716.301c-.14.036-.281.061-.425.077-.165.016-.33.023-.496.023a2.59 2.59 0 0 1-.856-.138 2.09 2.09 0 0 1-.68-.387 1.79 1.79 0 0 1-.438-.587 1.851 1.851 0 0 1-.156-.768 1.92 1.92 0 0 1 .153-.774c.097-.22.247-.42.438-.587.194-.167.425-.297.68-.384.29-.095.6-.142.91-.138.158 0 .316.01.472.032.138.02.274.051.404.094.12.038.233.088.34.147.104.057.203.122.296.193l-.163.229a.142.142 0 0 1-.055.05.17.17 0 0 1-.078.02.222.222 0 0 1-.105-.029 2.113 2.113 0 0 1-.167-.088 1.504 1.504 0 0 0-.227-.1 2.127 2.127 0 0 0-.313-.082 2.614 2.614 0 0 0-.431-.032 2.009 2.009 0 0 0-.656.103c-.189.065-.36.165-.5.293a1.29 1.29 0 0 0-.315.46 1.732 1.732 0 0 0 0 1.235c.074.175.19.333.34.467.139.127.308.227.495.293.217.064.445.089.673.073ZM100.736 50.814h1.855v.422h-2.422v-3.704h.581l-.014 3.282ZM104.521 51.236h-.581v-3.704h.581v3.704ZM106.681 47.55a.28.28 0 0 1 .089.067l2.483 2.792a.97.97 0 0 1 0-.132V47.517h.506v3.72h-.292a.277.277 0 0 1-.126-.021.322.322 0 0 1-.091-.07l-2.48-2.79v2.88h-.486v-3.704h.302c.033 0 .065.006.095.017ZM114.036 47.532v.407h-2.058v1.223h1.668v.393h-1.668v1.264h2.058v.408h-2.656v-3.695h2.656ZM53.162 24.655l25.795 6.324v22.158l-25.795-6.32V24.654Zm-1.655-1.888v25.126l29.1 7.136V29.905l-29.1-7.138Z"/><path fill="#AFB1B8" d="M67.104 66.692 38 59.551V34.427l29.104 7.139v25.126Z"/><path fill="#AFB1B8" d="m51.99 24.371 25.458 6.244-10.826 9.35-25.463-6.247 10.83-9.347Zm-.483-1.604L38 34.427l29.104 7.14 13.504-11.662-29.1-7.138ZM68.741 65.279l11.867-10.247-11.867-2.913v13.16Z"/></svg>